<svg width="130" height="18" viewBox="0 0 130 18" fill="none" xmlns="http://www.w3.org/2000/svg">
<path d="M9.632 3.224C9.272 2.528 8.72 1.88 8.072 1.448C7.28 0.92 6.488 0.727999 5.504 0.727999C2.912 0.727999 1.016 2.384 1.016 4.856C1.016 6.056 1.424 6.8 2.12 7.472C2.84 8.168 3.632 8.504 4.256 8.792L5.696 9.464C6.536 9.848 7.16 10.136 7.616 10.568C8.192 11.096 8.408 11.72 8.408 12.44C8.408 14.048 7.376 15.608 5.192 15.608C4.376 15.608 3.584 15.416 2.888 14.72C2.432 14.24 2.048 13.52 1.928 12.68L0.2 13.16C0.416 14.12 0.896 15.224 1.688 15.992C2.792 17.072 4.112 17.288 5.168 17.288C8.048 17.288 10.232 15.32 10.232 12.368C10.232 11.216 9.896 10.28 9.08 9.464C8.408 8.792 7.544 8.36 6.608 7.952L5.072 7.28C4.472 7.016 3.872 6.752 3.392 6.272C2.96 5.864 2.792 5.504 2.792 4.88C2.792 3.392 3.896 2.408 5.48 2.408C6.392 2.408 6.968 2.72 7.28 2.96C7.64 3.248 8 3.728 8.216 4.16L9.632 3.224ZM15.2619 17V4.64L27.7419 17.72V0.991999H25.9659V13.4L13.4859 0.319999V17H15.2619ZM39.3249 17.288C43.9569 17.288 47.6529 13.76 47.6529 9.008C47.6529 4.232 43.9329 0.727999 39.3249 0.727999C34.7169 0.727999 30.9969 4.232 30.9969 9.008C30.9969 13.76 34.6929 17.288 39.3249 17.288ZM39.3249 2.408C42.9249 2.408 45.8289 5.336 45.8289 9.008C45.8289 12.68 42.9249 15.608 39.3249 15.608C35.7249 15.608 32.8209 12.68 32.8209 9.008C32.8209 5.336 35.7249 2.408 39.3249 2.408ZM48.5279 0.991999L54.6719 17.84L59.7119 5.024L64.4159 17.84L71.1359 0.991999H69.1679L64.4879 12.992L59.7359 0.175999L54.7199 12.992L50.4959 0.991999H48.5279ZM80.6881 0.991999H73.3921V17H75.1681V9.08H80.4961V7.4H75.1681V2.672H80.6881V0.991999ZM83.7984 0.991999V17H89.9904V15.32H85.5744V0.991999H83.7984ZM103.104 17H105.072L97.8959 0.223999L90.5279 17H92.4959L94.4159 12.488H101.232L103.104 17ZM95.1119 10.808L97.8479 4.4L100.536 10.808H95.1119ZM109.106 0.991999H107.33V17H109.106V10.112L109.562 9.656L116.114 17H118.562L110.834 8.456L118.322 0.991999H115.922L109.106 7.856V0.991999ZM129.274 0.991999H120.97V17H129.274V15.32H122.746V9.104H129.082V7.424H122.746V2.672H129.274V0.991999Z" fill="#272B33"/>
</svg>
